<svg width="24" height="24" viewBox="0 0 24 24" fill="none" xmlns="http://www.w3.org/2000/svg">
<g clip-path="url(#clip0)">
<path d="M23.5937 6.12768C23.341 5.97144 23.0254 5.95718 22.7597 6.08997L17.1428 8.89881V6.85708C17.1428 5.43691 15.9916 4.28564 14.5714 4.28564H2.57143C1.15127 4.28564 0 5.43691 0 6.85708V17.1428C0 18.563 1.15127 19.7142 2.57143 19.7142H14.5714C15.9916 19.7142 17.1428 18.563 17.1428 17.1428V15.1011L22.7597 17.9142C23.1832 18.1258 23.698 17.9541 23.9096 17.5306C23.9698 17.4102 24.0008 17.2774 24 17.1428V6.85708C24.0002 6.55996 23.8464 6.28398 23.5937 6.12768ZM15.4286 17.1428C15.4286 17.6162 15.0448 18 14.5714 18H2.57143C2.09802 18 1.71427 17.6162 1.71427 17.1428V6.85708C1.71427 6.38367 2.09802 5.99992 2.57143 5.99992H14.5714C15.0448 5.99992 15.4286 6.38367 15.4286 6.85708V17.1428ZM22.2857 15.756L17.1428 13.1846V10.8154L22.2857 8.24399V15.756V15.756Z" fill="#14B9FF"/>
<path d="M8.57116 8.57153C6.6776 8.57153 5.14258 10.1066 5.14258 12.0001C5.14258 13.8937 6.6776 15.4287 8.57116 15.4287C10.4647 15.4287 11.9997 13.8937 11.9997 12.0001C11.9997 10.1066 10.4647 8.57153 8.57116 8.57153ZM8.57116 13.7144C7.62441 13.7144 6.8569 12.9469 6.8569 12.0001C6.8569 11.0534 7.62441 10.2859 8.57116 10.2859C9.51792 10.2859 10.2854 11.0534 10.2854 12.0001C10.2854 12.9469 9.51792 13.7144 8.57116 13.7144Z" fill="#14B9FF"/>
</g>
<defs>
<clipPath id="clip0">
<rect width="24" height="24" fill="white"/>
</clipPath>
</defs>
</svg>
