<svg width="43" height="43" viewBox="0 0 43 43" fill="none" xmlns="http://www.w3.org/2000/svg">
<rect y="9" width="30" height="33" rx="5" fill="#B3EEE3"/>
<path d="M33.4739 38.7593H8.8089C6.86289 38.7593 5.28534 37.1818 5.28534 35.2358V10.5708C5.28534 8.6248 6.86289 7.04725 8.8089 7.04725H12.3325V3.52368H15.856V7.04725H26.4267V3.52368H29.9503V7.04725H33.4739C35.4199 7.04725 36.9974 8.6248 36.9974 10.5708V35.2358C36.9974 37.1818 35.4199 38.7593 33.4739 38.7593ZM8.8089 17.6179V35.2358H33.4739V17.6179H8.8089ZM8.8089 10.5708V14.0944H33.4739V10.5708H8.8089ZM19.3796 32.4416L12.8487 25.9107L15.3398 23.4195L19.3796 27.4593L26.9429 19.8959L29.4341 22.3871L19.3796 32.4398V32.4416Z" fill="#162884"/>
</svg>
