<svg width="43" height="43" viewBox="0 0 43 43" fill="none" xmlns="http://www.w3.org/2000/svg">
<circle cx="12" cy="23.8873" r="12" fill="#B1EDE2"/>
<path d="M32.9048 34.5433L22.8362 24.473C18.3572 27.6573 12.1852 26.8784 8.63777 22.6811C5.09031 18.4838 5.35079 12.2684 9.237 8.3826C13.1222 4.49513 19.3382 4.23352 23.5363 7.7808C27.7344 11.3281 28.5138 17.5006 25.3291 21.98L35.3977 32.0504L32.9066 34.5415L32.9048 34.5433ZM16.7105 8.80892C13.3696 8.80817 10.4873 11.1533 9.80866 14.4245C9.12999 17.6957 10.8415 20.9939 13.9069 22.3222C16.9724 23.6506 20.5492 22.6439 22.4719 19.9118C24.3947 17.1797 24.1348 13.4729 21.8496 11.0358L22.9155 12.0929L21.714 10.8949L21.6928 10.8738C20.3746 9.54744 18.5804 8.80388 16.7105 8.80892Z" fill="#162884"/>
</svg>
